<?xml version="1.0" encoding="utf-8"?>
<!-- Generator: Adobe Illustrator 27.9.0, SVG Export Plug-In . SVG Version: 6.00 Build 0)  -->
<svg version="1.1" id="Слой_1" xmlns="http://www.w3.org/2000/svg" xmlns:xlink="http://www.w3.org/1999/xlink" x="0px" y="0px"
	 viewBox="0 0 1080 1920" enable-background="new 0 0 1080 1920" xml:space="preserve">
<g display="none">
	<g display="inline">
		<path fill="#1D63AE" d="M554.6,1800.9c0,0,5.9-116.4,5.8-113.6l-2.7-43.9c0-0.6,7.2-125.5,7.2-126.1l12.9-124.9
			c1.1-7.8,12.9-7,12.2,1.1L577,1518c0-0.3-7.4,127.7-7.3,124.3l2.7,43.9l0,0.3l0,0.3l-6.1,114.3
			C565.6,1808.9,554.4,1808.6,554.6,1800.9L554.6,1800.9z"/>
	</g>
	<g display="inline">
		
			<line fill="none" stroke="#1D63AE" stroke-width="12.3905" stroke-miterlimit="10" x1="243.8" y1="-28.6" x2="138.1" y2="2264.5"/>
		
			<line fill="none" stroke="#1D63AE" stroke-width="12.3905" stroke-linecap="round" stroke-linejoin="round" stroke-miterlimit="10" x1="-155.6" y1="481.2" x2="845.8" y2="525"/>
		<g>
			<path fill="none" stroke="#1D63AE" stroke-width="12.3905" stroke-miterlimit="10" d="M806.6,523.4l3,63.7
				c0.4,6.8,0.2,13.3-0.3,20.2l-9.5,114.8l-1.7,12.8c-1.2,10.3-5.9,20.2-12.9,28.1l-9,10.2l-32.8,27.1c-8.6,7-11.6,18.7-8.2,29
				c4.5,13.1,0.1,27.6-10.5,36.3l0,0c-3,2.4-5.3,5-7.3,8.2l-91.2,143.7c-2.8,4.2-4.4,9.3-5,14.3l-37.9,361.1
				c-1.7,17.5-16.8,30.2-34.2,29.4l-60.1-2.9l-619.7-29.6"/>
		</g>
	</g>
</g>
<g display="none">
	<path display="inline" fill="none" stroke="#1D63AE" stroke-width="3.0976" stroke-miterlimit="10" d="M477.6,1012l20.1-91.9
		c0,0,83.1-91.2,118.2-135.2"/>
	<path display="inline" fill="none" stroke="#1D63AE" stroke-width="3.0976" stroke-miterlimit="10" d="M251.8,992.9l93.4,0.2
		c52.5,8.2,105,16.4,157.5,24.6c39.5,6.2,79,12.3,118.5,18.5"/>
	<path display="inline" fill="none" stroke="#1D63AE" stroke-width="3.0665" stroke-miterlimit="10" d="M774.2,773.4
		c0,0-133.5,12.4-167.8,11.5c-10.7-8.3-21.5-16.6-32.2-24.9c0-79.7,9.5-164.4,9.5-244.1"/>
</g>
<g>
	
		<rect x="567.6" y="1394" transform="matrix(7.971932e-03 -1 1 7.971932e-03 -764.9735 2073.5178)" display="none" fill="#EF7E6D" width="189.9" height="56.7"/>
	
		<rect x="223.2" y="1111.7" transform="matrix(7.971932e-03 -1 1 7.971932e-03 -815.5099 1452.4675)" fill="#EF7E6D" width="202.3" height="51.1"/>
	<polygon display="none" fill="#EF7E6D" points="797.9,269.1 797.5,309.2 796.7,432.1 796.3,471.5 796.3,472.2 683,471 683.3,431.3 
		745.4,431.5 746.6,308.9 684.2,308.3 684.6,268.3 746.7,268.8 	"/>
	<path display="none" fill="#EF7E6D" d="M774.2,756.5L773,640.2l0-0.3l0.1-24.5l-5.9,0l-0.3-46.2l-146.7,1.5l0.5,43.7l-12.7-0.2
		l-0.1,14.3l-0.3,36.3l-0.6,91.6l26.1,0.3l0,0.3 M654.2,732.8l0.6-67.1l0-0.6l36,0.3l33.5-0.5l0,0.6l0.7,67.9L654.2,732.8z"/>
</g>
<g display="none">
	
		<rect x="593.4" y="1159.7" transform="matrix(7.971932e-03 -1 1 7.971932e-03 -522.3727 1840.5856)" display="inline" fill="#DADADA" width="146.2" height="47.7"/>
	
		<rect x="406.1" y="1191.8" transform="matrix(4.599556e-02 -0.9989 0.9989 4.599556e-02 -689.9982 1708.8663)" display="inline" fill="#DADADA" width="287.2" height="47.7"/>
	
		<rect x="569.9" y="1627.1" transform="matrix(7.971932e-03 -1 1 7.971932e-03 -1003.0428 2290.8499)" display="inline" fill="#DADADA" width="166.3" height="47.7"/>
	
		<rect x="526.7" y="881.1" transform="matrix(0.6353 -0.7723 0.7723 0.6353 -468.8053 817.1883)" display="inline" fill="#DADADA" width="208.2" height="47.7"/>
	<polygon display="inline" fill="#DADADA" points="342,823.2 341.2,913.3 389.1,913.8 389.5,864.7 437.3,865.2 436.9,914 
		436.2,973.6 388.6,973.1 340.8,972.6 340.9,973.2 293.1,973 294.5,823 294.4,812.2 290.7,812.1 287.3,812 289.4,576.9 365.8,577.5 
		365.1,668.2 396.6,666.3 399.5,713.6 364.9,715.7 364.2,775.9 443.1,776.4 442.6,824.2 	"/>
	
		<rect x="819.4" y="503.2" transform="matrix(7.971932e-03 -1 1 7.971932e-03 352.5309 1413.416)" display="inline" fill="#DADADA" width="138.5" height="51.7"/>
	
		<rect x="513.6" y="340.2" transform="matrix(7.971932e-03 -1 1 7.971932e-03 88.9618 978.1602)" display="inline" fill="#DADADA" width="47.7" height="208.2"/>
	<polygon display="inline" fill="#DADADA" points="392.2,410.5 391.3,451.9 322.7,452 312.2,452 289.8,451.8 270,451.5 272.6,103.1 
		325.4,103.6 323,410.4 	"/>
	<polygon display="inline" fill="#DADADA" points="483.3,1314.9 482.9,1368.9 274.6,1367.3 275,1313.3 289.9,1313.3 290.1,1280.1 
		337.9,1280.3 337.4,1313.5 	"/>
	
		<rect x="489.3" y="998.9" transform="matrix(7.971932e-03 -1 1 7.971932e-03 -488.8596 1552.6722)" display="inline" fill="#DADADA" width="97.6" height="47.7"/>
	<polygon display="inline" fill="#DADADA" points="542.8,580.4 535.2,745 467.6,741.7 470.6,678.8 451.8,680 450.7,662.7 
		471.4,661.4 473.3,620.6 410.1,617.7 412.5,570 542.3,576.1 541.9,580.5 	"/>
	
		<rect x="858.2" y="332.9" transform="matrix(0.6353 -0.7723 0.7723 0.6353 75.4299 873.3)" display="inline" fill="#DADADA" width="208.2" height="47.7"/>
	<polygon display="inline" fill="#DADADA" points="541.6,1471.8 541.9,1471.7 541,1564 480.5,1563.3 480.8,1523 287.1,1521.4 
		278.6,1698.5 476.3,1707.6 476.8,1670 535.7,1670.4 535.4,1710.2 535.2,1717.9 533.3,1758.1 533,1757.8 476.1,1755.4 276.6,1746.1 
		225.5,1743.7 215.6,1743.3 227.8,1485 228.7,1485 228.8,1462 541.8,1464.6 	"/>
	
		<rect x="525.9" y="249.7" transform="matrix(7.971932e-03 -1 1 7.971932e-03 271.5915 877.2739)" display="inline" fill="#DADADA" width="104.1" height="104.1"/>
	
		<rect x="587.4" y="308.4" transform="matrix(7.971932e-03 -1 1 7.971932e-03 327.6896 973.7666)" display="inline" fill="#DADADA" width="134.4" height="26.6"/>
	<path display="inline" fill="#DADADA" d="M735.8,1042.8l0.2-21.7l-55.3-0.4l0.1-18l-0.9,0.1l26.7-30.2l-15.8-14.2l-39.2,44.3
		l-0.6,0l-0.3,26.1l3.1,0.1l-0.1,14l-9.6,0l-0.1,28.6l86.9,0.6l-0.2,32.3l-16.2-0.3l-0.9,97.2l47.8,0.5l0.9-97.2l0,0l0.2-32.3l0,0
		l0.1-28.6L735.8,1042.8z M730.6,1064.6l5,0l0,4.3l-5,0L730.6,1064.6z"/>
	<polyline display="inline" fill="#DADADA" points="770.7,902.3 736.1,950 707.5,929.4 744.1,878.5 765.1,806.1 798.8,818 	"/>
</g>
</svg>
